# xmcd
#
# Track frame offsets:
#	150
#	15090
#	29507
#	43989
#	54929
#	70179
#	84445
#	95099
#	102690
#	114084
#	123476
#	144688
#	152415
#	166164
#	183516
#	192726
#	206373
#	217093
#	232284
#	243139
#	257965
#	268215
#	274576
#	292610
#	301214
#	315371
#	325819
#
# Disc length: 4556 seconds
#
# Revision: 1
# Processed by: cddbd v1.5.2PL0 Copyright (c) Steve Scherf et al.
# Submitted via: audiograbber 1.83.01
#
DISCID=8311ca1b
DTITLE=Forró do Bom - Promocional 2009
DYEAR=2009
DGENRE=Forró
TTITLE0=Você de Volta
TTITLE1=Cansei
TTITLE2=Insegurança
TTITLE3=Crossfox
TTITLE4=Chora, Me Liga
TTITLE5=Pistoleira
TTITLE6=Chama na Buzina
TTITLE7=Encontro das Almas
TTITLE8=A Galera Já Chegou
TTITLE9=Me Chama de My Love
TTITLE10=Retrato
TTITLE11=Vai
TTITLE12=Dança do Ice
TTITLE13=Agenda
TTITLE14=Beijar na Boca
TTITLE15=Botar Boneco
TTITLE16=A Galera Já Chegou
TTITLE17=Cheiro de Shampoo
TTITLE18=Amado
TTITLE19=Arreia Cerveja
TTITLE20=Enche e Derrama
TTITLE21=Solteira Sim, Sozinha Nunca
TTITLE22=O Doutor e a Empregada
TTITLE23=So Mais Um
TTITLE24=Deus Está Aqui Neste Momento (Gospel)
TTITLE25=CD Arranhado
TTITLE26=A Galera Já Chegou
EXTD=
EXTT0=
EXTT1=
EXTT2=
EXTT3=
EXTT4=
EXTT5=
EXTT6=
EXTT7=
EXTT8=
EXTT9=
EXTT10=
EXTT11=
EXTT12=
EXTT13=
EXTT14=
EXTT15=
EXTT16=
EXTT17=
EXTT18=
EXTT19=
EXTT20=
EXTT21=
EXTT22=
EXTT23=
EXTT24=
EXTT25=
EXTT26=
PLAYORDER=
